# xmcd
#
# Track frame offsets:
#	183
#	18833
#	46120
#	83758
#	108033
#	122895
#	144620
#	164420
#	189033
#	216133
#	238183
#
# Disc length: 3445 seconds
#
# Revision: 5
# Processed by: cddbd v1.5.2PL0 Copyright (c) Steve Scherf et al.
# Submitted via: audiograbber 1.83.01
#
DISCID=870d730b
DTITLE=Various Artist - Where Blues Meets Rock
DYEAR=1994
DGENRE=Bluesrock
TTITLE0=OMAR DYKES - Everywhere I Go
TTITLE1=WALTER TROUT BAND - Say Goodbye To The Blues
TTITLE2=DAVE HOLE - Up All Night Thinking
TTITLE3=MICHAEL KATON - You Love Me Up
TTITLE4=BOBBY MACK and NIGHT TRAIN - Phillip West
TTITLE5=BIG SUGAR - Ride Like Hell
TTITLE6=THE HAMSTERS - Check Up From The Neck Up
TTITLE7=MARC BENNO - Love Junkie
TTITLE8=MASON RUFFNER - Loaded Down
TTITLE9=PAT TRAVERS - Elaine
TTITLE10=JAN JAMES - It's Over
EXTD=Label: PROVOGUE\nBestellnummer: 32970712\nFirma: rough trade Distribution 
EXTD=GmbH\n----\n'Where Bl bereitgest
EXTT0=
EXTT1=
EXTT2=
EXTT3=
EXTT4=
EXTT5=
EXTT6=
EXTT7=
EXTT8=
EXTT9=
EXTT10=
PLAYORDER=
